<?xml version="1.0" encoding="UTF-8"?>
<svg xmlns="http://www.w3.org/2000/svg" xmlns:xlink="http://www.w3.org/1999/xlink" width="35pt" height="44pt" viewBox="0 0 35 44" version="1.1">
<g id="surface1">
<path style=" stroke:none;fill-rule:nonzero;fill:rgb(70.980392%,70.980392%,71.372549%);fill-opacity:1;" d="M 28.398438 39.101562 C 28.398438 36.398438 23.699219 34.199219 17.800781 34.199219 C 11.898438 34.199219 7.199219 36.398438 7.199219 39.101562 C 7.199219 41.800781 11.898438 44 17.800781 44 C 23.699219 44 28.398438 41.800781 28.398438 39.101562 Z M 28.398438 39.101562 "/>
<path style=" stroke:none;fill-rule:nonzero;fill:rgb(90.980392%,34.509804%,4.705882%);fill-opacity:1;" d="M 35 17.5 C 34.601562 28.601562 22 33.398438 17.898438 41.898438 C 13.101562 33.5 0.101562 27.101562 0 17.5 C 0 7.800781 7.800781 0 17.5 0 C 27.199219 0 35.398438 7.800781 35 17.5 Z M 35 17.5 "/>
<path style=" stroke:none;fill-rule:nonzero;fill:rgb(100%,100%,100%);fill-opacity:1;" d="M 12 4 C 11.199219 5 10.398438 7.199219 9.601562 9.800781 L 9.601562 17.601562 C 10.601562 18.199219 11.398438 18.300781 12.199219 17.601562 L 12.199219 16.300781 L 22.800781 16.300781 L 22.800781 17.601562 C 23.699219 18.199219 24.601562 18.300781 25.5 17.601562 L 25.5 9.800781 C 24.800781 7.5 23.898438 5.5 22.898438 4 Z M 12 4 "/>
<path style=" stroke:none;fill-rule:nonzero;fill:rgb(90.980392%,34.509804%,4.705882%);fill-opacity:1;" d="M 13.101562 5.898438 C 12.601562 6.300781 12.199219 7.300781 11.898438 8.5 L 23.199219 8.5 C 22.898438 7.300781 22.5 6.199219 22 5.898438 Z M 13.101562 5.898438 "/>
<path style=" stroke:none;fill-rule:nonzero;fill:rgb(90.980392%,34.509804%,4.705882%);fill-opacity:1;" d="M 11.300781 10.300781 L 23.699219 10.300781 L 23.699219 14.699219 L 11.300781 14.699219 Z M 11.300781 10.300781 "/>
<path style=" stroke:none;fill-rule:nonzero;fill:rgb(100%,100%,100%);fill-opacity:1;" d="M 14.800781 12.398438 C 14.800781 13.117188 14.21875 13.699219 13.5 13.699219 C 12.78125 13.699219 12.199219 13.117188 12.199219 12.398438 C 12.199219 11.683594 12.78125 11.101562 13.5 11.101562 C 14.21875 11.101562 14.800781 11.683594 14.800781 12.398438 Z M 14.800781 12.398438 "/>
<path style=" stroke:none;fill-rule:nonzero;fill:rgb(100%,100%,100%);fill-opacity:1;" d="M 22.800781 12.398438 C 22.800781 13.117188 22.21875 13.699219 21.5 13.699219 C 20.78125 13.699219 20.199219 13.117188 20.199219 12.398438 C 20.199219 11.683594 20.78125 11.101562 21.5 11.101562 C 22.21875 11.101562 22.800781 11.683594 22.800781 12.398438 Z M 22.800781 12.398438 "/>
</g>
</svg>
