<?xml version="1.0" encoding="UTF-8"?>
<svg xmlns="http://www.w3.org/2000/svg" xmlns:xlink="http://www.w3.org/1999/xlink" width="35pt" height="44pt" viewBox="0 0 35 44" version="1.1">
<g id="surface1">
<path style=" stroke:none;fill-rule:nonzero;fill:rgb(70.980392%,70.980392%,71.372549%);fill-opacity:1;" d="M 28.4375 39.089844 C 28.4375 36.378906 23.691406 34.183594 17.835938 34.183594 C 11.984375 34.183594 7.238281 36.378906 7.238281 39.089844 C 7.238281 41.796875 11.984375 43.992188 17.835938 43.992188 C 23.691406 43.992188 28.4375 41.796875 28.4375 39.089844 Z M 28.4375 39.089844 "/>
<path style=" stroke:none;fill-rule:nonzero;fill:rgb(9.019608%,16.470588%,53.333333%);fill-opacity:1;" d="M 34.988281 17.476562 C 34.574219 28.550781 21.996094 33.347656 17.867188 41.910156 C 13.132812 33.496094 0.0546875 27.148438 0.00390625 17.476562 C -0.046875 7.828125 7.835938 0.0078125 17.5 0.0078125 C 27.160156 0.0078125 35.355469 7.835938 34.988281 17.476562 Z M 34.988281 17.476562 "/>
<path style=" stroke:none;fill-rule:nonzero;fill:rgb(100%,100%,100%);fill-opacity:1;" d="M 12.492188 5.296875 L 22.441406 5.296875 L 22.441406 18.074219 L 12.492188 18.074219 Z M 12.492188 5.296875 "/>
<path style=" stroke:none;fill-rule:nonzero;fill:rgb(9.019608%,16.470588%,53.333333%);fill-opacity:1;" d="M 13.890625 6.734375 L 15.339844 6.734375 L 15.339844 8.183594 L 13.890625 8.183594 Z M 13.890625 6.734375 "/>
<path style=" stroke:none;fill-rule:nonzero;fill:rgb(9.019608%,16.470588%,53.333333%);fill-opacity:1;" d="M 16.742188 6.734375 L 18.191406 6.734375 L 18.191406 8.183594 L 16.742188 8.183594 Z M 16.742188 6.734375 "/>
<path style=" stroke:none;fill-rule:nonzero;fill:rgb(9.019608%,16.470588%,53.333333%);fill-opacity:1;" d="M 19.589844 6.734375 L 21.039062 6.734375 L 21.039062 8.183594 L 19.589844 8.183594 Z M 19.589844 6.734375 "/>
<path style=" stroke:none;fill-rule:nonzero;fill:rgb(9.019608%,16.470588%,53.333333%);fill-opacity:1;" d="M 13.925781 9.550781 L 15.375 9.550781 L 15.375 11 L 13.925781 11 Z M 13.925781 9.550781 "/>
<path style=" stroke:none;fill-rule:nonzero;fill:rgb(9.019608%,16.470588%,53.333333%);fill-opacity:1;" d="M 16.777344 9.550781 L 18.226562 9.550781 L 18.226562 11 L 16.777344 11 Z M 16.777344 9.550781 "/>
<path style=" stroke:none;fill-rule:nonzero;fill:rgb(9.019608%,16.470588%,53.333333%);fill-opacity:1;" d="M 19.589844 9.550781 L 21.039062 9.550781 L 21.039062 11 L 19.589844 11 Z M 19.589844 9.550781 "/>
<path style=" stroke:none;fill-rule:nonzero;fill:rgb(9.019608%,16.470588%,53.333333%);fill-opacity:1;" d="M 13.910156 12.367188 L 15.359375 12.367188 L 15.359375 13.8125 L 13.910156 13.8125 Z M 13.910156 12.367188 "/>
<path style=" stroke:none;fill-rule:nonzero;fill:rgb(9.019608%,16.470588%,53.333333%);fill-opacity:1;" d="M 16.761719 12.367188 L 18.214844 12.367188 L 18.214844 13.8125 L 16.761719 13.8125 Z M 16.761719 12.367188 "/>
<path style=" stroke:none;fill-rule:nonzero;fill:rgb(9.019608%,16.470588%,53.333333%);fill-opacity:1;" d="M 19.574219 12.367188 L 21.023438 12.367188 L 21.023438 13.8125 L 19.574219 13.8125 Z M 19.574219 12.367188 "/>
<path style=" stroke:none;fill-rule:nonzero;fill:rgb(9.019608%,16.470588%,53.333333%);fill-opacity:1;" d="M 13.910156 15.179688 L 15.359375 15.179688 L 15.359375 16.628906 L 13.910156 16.628906 Z M 13.910156 15.179688 "/>
<path style=" stroke:none;fill-rule:nonzero;fill:rgb(9.019608%,16.470588%,53.333333%);fill-opacity:1;" d="M 16.761719 15.179688 L 18.214844 15.179688 L 18.214844 18.074219 L 16.761719 18.074219 Z M 16.761719 15.179688 "/>
<path style=" stroke:none;fill-rule:nonzero;fill:rgb(9.019608%,16.470588%,53.333333%);fill-opacity:1;" d="M 19.574219 15.179688 L 21.023438 15.179688 L 21.023438 16.628906 L 19.574219 16.628906 Z M 19.574219 15.179688 "/>
</g>
</svg>
