<?xml version="1.0" encoding="UTF-8"?>
<svg xmlns="http://www.w3.org/2000/svg" xmlns:xlink="http://www.w3.org/1999/xlink" width="35pt" height="44pt" viewBox="0 0 35 44" version="1.1">
<g id="surface1">
<path style=" stroke:none;fill-rule:nonzero;fill:rgb(70.980392%,70.980392%,71.372549%);fill-opacity:1;" d="M 28.4375 39.089844 C 28.4375 36.378906 23.691406 34.183594 17.835938 34.183594 C 11.984375 34.183594 7.238281 36.378906 7.238281 39.089844 C 7.238281 41.796875 11.984375 43.992188 17.835938 43.992188 C 23.691406 43.992188 28.4375 41.796875 28.4375 39.089844 Z M 28.4375 39.089844 "/>
<path style=" stroke:none;fill-rule:nonzero;fill:rgb(0%,62.745098%,91.372549%);fill-opacity:1;" d="M 34.988281 17.476562 C 34.574219 28.550781 21.996094 33.347656 17.867188 41.910156 C 13.132812 33.496094 0.0546875 27.148438 0.00390625 17.476562 C -0.046875 7.828125 7.835938 0.0078125 17.5 0.0078125 C 27.160156 0.0078125 35.355469 7.835938 34.988281 17.476562 Z M 34.988281 17.476562 "/>
<path style=" stroke:none;fill-rule:nonzero;fill:rgb(100%,100%,100%);fill-opacity:1;" d="M 22.410156 11.304688 C 22.410156 14.011719 20.210938 16.207031 17.5 16.207031 C 14.789062 16.207031 12.589844 14.011719 12.589844 11.304688 C 12.589844 8.59375 14.789062 6.398438 17.5 6.398438 C 20.210938 6.398438 22.410156 8.59375 22.410156 11.304688 Z M 22.410156 11.304688 "/>
</g>
</svg>
