<?xml version="1.0" encoding="UTF-8"?>
<svg xmlns="http://www.w3.org/2000/svg" xmlns:xlink="http://www.w3.org/1999/xlink" width="30pt" height="49pt" viewBox="0 0 30 49" version="1.1">
<g id="surface1">
<path style=" stroke:none;fill-rule:nonzero;fill:rgb(95.294118%,60.392157%,16.078431%);fill-opacity:1;" d="M 30 14.820312 C 30 23.003906 15 44.351562 15 49 C 15 44.425781 0 23.003906 0 14.820312 C 0 6.632812 6.714844 0 15 0 C 23.285156 0 30 6.632812 30 14.820312 Z M 30 14.820312 "/>
<path style=" stroke:none;fill-rule:nonzero;fill:rgb(100%,100%,100%);fill-opacity:1;" d="M 16.925781 8.800781 L 18.632812 22.035156 L 23.980469 22.035156 L 25.476562 8.800781 L 21.554688 8.800781 L 19.917969 3.449219 L 18.207031 4.222656 L 19.5625 8.800781 Z M 16.925781 8.800781 "/>
<path style=" stroke:none;fill-rule:nonzero;fill:rgb(100%,100%,100%);fill-opacity:1;" d="M 4.667969 14.714844 L 15.996094 14.714844 C 15.949219 13.109375 15.339844 12.070312 13.859375 11.898438 L 6.449219 11.898438 C 5.015625 12.453125 4.523438 13.4375 4.667969 14.714844 Z M 4.667969 14.714844 "/>
<path style=" stroke:none;fill-rule:nonzero;fill:rgb(100%,100%,100%);fill-opacity:1;" d="M 5.09375 16.121094 C 4.789062 16.296875 4.667969 16.621094 4.667969 17.039062 C 4.71875 17.453125 4.867188 17.730469 5.09375 17.882812 L 15.425781 17.882812 C 15.789062 17.894531 15.960938 17.570312 15.996094 17.003906 C 15.925781 16.414062 15.667969 16.15625 15.285156 16.121094 L 14.003906 16.121094 C 13.996094 16.675781 13.441406 16.964844 12.507812 17.003906 C 11.265625 16.960938 10.949219 16.578125 10.9375 16.121094 Z M 5.09375 16.121094 "/>
<path style=" stroke:none;fill-rule:nonzero;fill:rgb(100%,100%,100%);fill-opacity:1;" d="M 4.667969 19.148438 C 4.761719 20.628906 5.425781 21.589844 6.664062 22.035156 L 13.929688 22.035156 C 15.25 21.804688 15.875 20.769531 15.996094 19.148438 Z M 4.667969 19.148438 "/>
</g>
</svg>
