<?xml version="1.0" encoding="UTF-8"?>
<svg xmlns="http://www.w3.org/2000/svg" xmlns:xlink="http://www.w3.org/1999/xlink" width="35pt" height="44pt" viewBox="0 0 35 44" version="1.1">
<g id="surface1">
<path style=" stroke:none;fill-rule:nonzero;fill:rgb(70.980392%,70.980392%,71.372549%);fill-opacity:1;" d="M 28.4375 39.089844 C 28.4375 36.378906 23.691406 34.183594 17.835938 34.183594 C 11.984375 34.183594 7.238281 36.378906 7.238281 39.089844 C 7.238281 41.796875 11.984375 43.992188 17.835938 43.992188 C 23.691406 43.992188 28.4375 41.796875 28.4375 39.089844 Z M 28.4375 39.089844 "/>
<path style=" stroke:none;fill-rule:nonzero;fill:rgb(95.294118%,60.392157%,16.078431%);fill-opacity:1;" d="M 34.988281 17.476562 C 34.574219 28.550781 21.996094 33.347656 17.867188 41.910156 C 13.125 33.496094 0.0507812 27.144531 0 17.476562 C -0.0507812 7.828125 7.832031 0.0078125 17.496094 0.0078125 C 27.15625 0.0078125 35.351562 7.835938 34.988281 17.476562 Z M 34.988281 17.476562 "/>
<path style=" stroke:none;fill-rule:nonzero;fill:rgb(100%,100%,100%);fill-opacity:1;" d="M 18.800781 8.199219 L 19.992188 17.53125 L 23.722656 17.53125 L 24.765625 8.199219 L 22.03125 8.199219 L 20.890625 4.425781 L 19.695312 4.972656 L 20.640625 8.199219 Z M 18.800781 8.199219 "/>
<path style=" stroke:none;fill-rule:nonzero;fill:rgb(100%,100%,100%);fill-opacity:1;" d="M 10.253906 12.367188 L 18.15625 12.367188 C 18.125 11.238281 17.699219 10.503906 16.667969 10.382812 L 11.496094 10.382812 C 10.492188 10.773438 10.148438 11.46875 10.253906 12.367188 Z M 10.253906 12.367188 "/>
<path style=" stroke:none;fill-rule:nonzero;fill:rgb(100%,100%,100%);fill-opacity:1;" d="M 10.550781 13.359375 C 10.335938 13.484375 10.253906 13.710938 10.25 14.007812 C 10.289062 14.300781 10.390625 14.496094 10.550781 14.601562 L 17.757812 14.601562 C 18.007812 14.613281 18.128906 14.382812 18.15625 13.980469 C 18.105469 13.566406 17.925781 13.386719 17.65625 13.359375 L 16.761719 13.359375 C 16.757812 13.753906 16.371094 13.953125 15.71875 13.980469 C 14.855469 13.953125 14.632812 13.683594 14.625 13.359375 Z M 10.550781 13.359375 "/>
<path style=" stroke:none;fill-rule:nonzero;fill:rgb(100%,100%,100%);fill-opacity:1;" d="M 10.253906 15.496094 C 10.320312 16.539062 10.785156 17.214844 11.644531 17.53125 L 16.714844 17.53125 C 17.632812 17.367188 18.070312 16.636719 18.15625 15.496094 Z M 10.253906 15.496094 "/>
</g>
</svg>
