<svg id="レイヤー_1" data-name="レイヤー 1" xmlns="http://www.w3.org/2000/svg" viewBox="0 0 421 696"><defs><style>.cls-1{fill:#f39a29;}.cls-2{fill:#fff;}</style></defs><path class="cls-1" d="M644.5,276.5C644.5,392.76,434,696,434,762c0-65-210.5-369.24-210.5-485.5S317.74,66,434,66,644.5,160.24,644.5,276.5Z" transform="translate(-223.5 -66)"/><polygon class="cls-2" points="237.5 125 261.5 313 336.5 313 357.5 125 302.5 125 279.5 49 255.5 60 274.5 125 237.5 125"/><path class="cls-1" d="M-197,115" transform="translate(-223.5 -66)"/><path class="cls-2" d="M289,275H448c-.67-22.77-9.22-37.57-30-40H314C293.87,242.87,287,256.86,289,275Z" transform="translate(-223.5 -66)"/><path class="cls-2" d="M295,295c-4.28,2.49-6,7.06-6,13,.74,5.93,2.79,9.84,6,12H440c5.05.2,7.46-4.43,8-12.5-1-8.34-4.6-12-10-12.5H420c-.09,7.89-7.89,11.95-21,12.5-17.41-.6-21.84-6-22-12.5Z" transform="translate(-223.5 -66)"/><path class="cls-2" d="M289,338q2,31.5,28,41H419c18.49-3.27,27.26-18,29-41Z" transform="translate(-223.5 -66)"/></svg>