<?xml version="1.0" encoding="UTF-8"?>
<svg xmlns="http://www.w3.org/2000/svg" xmlns:xlink="http://www.w3.org/1999/xlink" width="35pt" height="44pt" viewBox="0 0 35 44" version="1.1">
<g id="surface1">
<path style=" stroke:none;fill-rule:nonzero;fill:rgb(70.980392%,70.980392%,71.372549%);fill-opacity:1;" d="M 28.398438 39.101562 C 28.398438 36.398438 23.699219 34.199219 17.800781 34.199219 C 11.898438 34.199219 7.199219 36.398438 7.199219 39.101562 C 7.199219 41.800781 11.898438 44 17.800781 44 C 23.699219 44 28.398438 41.800781 28.398438 39.101562 Z M 28.398438 39.101562 "/>
<path style=" stroke:none;fill-rule:nonzero;fill:rgb(5.098039%,67.45098%,40.392157%);fill-opacity:1;" d="M 35 17.5 C 34.601562 28.601562 22 33.398438 17.898438 41.898438 C 13.101562 33.5 0.101562 27.101562 0 17.5 C 0 7.800781 7.800781 0 17.5 0 C 27.199219 0 35.398438 7.800781 35 17.5 Z M 35 17.5 "/>
<path style=" stroke:none;fill-rule:nonzero;fill:rgb(100%,100%,100%);fill-opacity:1;" d="M 23 6 C 23 7.4375 21.835938 8.601562 20.398438 8.601562 C 18.964844 8.601562 17.800781 7.4375 17.800781 6 C 17.800781 4.5625 18.964844 3.398438 20.398438 3.398438 C 21.835938 3.398438 23 4.5625 23 6 Z M 23 6 "/>
<path style=" stroke:none;fill-rule:nonzero;fill:rgb(100%,100%,100%);fill-opacity:1;" d="M 17.398438 6.898438 L 13.101562 11.699219 C 12.898438 12.199219 12.898438 12.601562 13.300781 13.101562 C 13.699219 13.5 14.101562 13.601562 14.5 13.5 L 19.5 9.101562 C 18.398438 8.601562 17.699219 7.898438 17.398438 6.898438 Z M 17.398438 6.898438 "/>
<path style=" stroke:none;fill-rule:nonzero;fill:rgb(5.098039%,67.45098%,40.392157%);fill-opacity:1;" d="M 22.398438 6 C 22.398438 7.105469 21.503906 8 20.398438 8 C 19.296875 8 18.398438 7.105469 18.398438 6 C 18.398438 4.894531 19.296875 4 20.398438 4 C 21.503906 4 22.398438 4.894531 22.398438 6 Z M 22.398438 6 "/>
<path style="fill-rule:nonzero;fill:rgb(100%,100%,100%);fill-opacity:1;stroke-width:0.1;stroke-linecap:butt;stroke-linejoin:miter;stroke:rgb(100%,100%,100%);stroke-opacity:1;stroke-miterlimit:10;" d="M 18.699219 5.101562 C 19.5 6.101562 20.398438 7 21.398438 7.800781 L 21.800781 7.5 C 20.601562 6.601562 19.699219 5.601562 19 4.699219 Z M 18.699219 5.101562 "/>
<path style=" stroke:none;fill-rule:nonzero;fill:rgb(100%,100%,100%);fill-opacity:1;" d="M 12.898438 13.300781 L 13.199219 13.601562 C 12.601562 14.199219 12.601562 15 13.300781 15.601562 C 14.101562 16.199219 14.898438 15.898438 15.601562 15 C 16.199219 14.300781 17.300781 14.101562 18.199219 14.699219 C 18.800781 15.101562 19 15.601562 19.101562 16.199219 L 18.699219 16.199219 C 18.699219 15.699219 18.101562 15.199219 17.898438 15 C 17.5 14.699219 16.601562 14.699219 16 15.300781 L 15.101562 16 C 14.601562 16.398438 13.699219 16.398438 13.101562 16 C 12.101562 15 12.199219 14.101562 12.898438 13.300781 Z M 12.898438 13.300781 "/>
</g>
</svg>
