<?xml version="1.0" encoding="UTF-8"?>
<svg xmlns="http://www.w3.org/2000/svg" xmlns:xlink="http://www.w3.org/1999/xlink" width="35pt" height="44pt" viewBox="0 0 35 44" version="1.1">
<g id="surface1">
<path style=" stroke:none;fill-rule:nonzero;fill:rgb(70.980392%,70.980392%,71.372549%);fill-opacity:1;" d="M 28.4375 39.089844 C 28.4375 36.378906 23.691406 34.183594 17.835938 34.183594 C 11.984375 34.183594 7.238281 36.378906 7.238281 39.089844 C 7.238281 41.796875 11.984375 43.992188 17.835938 43.992188 C 23.691406 43.992188 28.4375 41.796875 28.4375 39.089844 Z M 28.4375 39.089844 "/>
<path style=" stroke:none;fill-rule:nonzero;fill:rgb(7.45098%,68.235294%,40.392157%);fill-opacity:1;" d="M 34.988281 17.476562 C 34.574219 28.550781 21.996094 33.347656 17.867188 41.910156 C 13.132812 33.496094 0.0546875 27.148438 0.00390625 17.476562 C -0.046875 7.828125 7.835938 0.0078125 17.5 0.0078125 C 27.160156 0.0078125 35.351562 7.835938 34.988281 17.476562 Z M 34.988281 17.476562 "/>
<path style=" stroke:none;fill-rule:nonzero;fill:rgb(100%,100%,100%);fill-opacity:1;" d="M 23.609375 7.878906 C 23.609375 9.53125 22.269531 10.871094 20.613281 10.871094 C 18.960938 10.871094 17.617188 9.53125 17.617188 7.878906 C 17.617188 6.226562 18.960938 4.886719 20.613281 4.886719 C 22.269531 4.886719 23.609375 6.226562 23.609375 7.878906 Z M 23.609375 7.878906 "/>
<path style=" stroke:none;fill-rule:nonzero;fill:rgb(100%,100%,100%);fill-opacity:1;" d="M 17.152344 8.886719 L 12.253906 14.34375 C 11.988281 14.894531 12.027344 15.417969 12.476562 15.90625 C 12.933594 16.347656 13.410156 16.457031 13.902344 16.320312 L 19.546875 11.304688 C 18.300781 10.832031 17.53125 10.003906 17.152344 8.886719 Z M 17.152344 8.886719 "/>
<path style=" stroke:none;fill-rule:nonzero;fill:rgb(7.45098%,68.235294%,40.392157%);fill-opacity:1;" d="M 22.832031 7.851562 C 22.832031 9.089844 21.824219 10.097656 20.582031 10.097656 C 19.339844 10.097656 18.332031 9.089844 18.332031 7.851562 C 18.332031 6.609375 19.339844 5.601562 20.582031 5.601562 C 21.824219 5.601562 22.832031 6.609375 22.832031 7.851562 Z M 22.832031 7.851562 "/>
<path style="fill-rule:nonzero;fill:rgb(100%,100%,100%);fill-opacity:1;stroke-width:1;stroke-linecap:butt;stroke-linejoin:miter;stroke:rgb(100%,100%,100%);stroke-opacity:1;stroke-miterlimit:10;" d="M 438.585636 163.994005 C 449.443152 177.643784 461.945746 189.881517 475.7174 200.566 L 480.746638 196.941748 C 463.872837 183.903856 451.417246 171.430782 442.580826 158.581162 Z M 438.585636 163.994005 " transform="matrix(0.0831078,0,0,0.0829913,-17.836586,-6.844446)"/>
<path style="fill-rule:nonzero;fill:rgb(100%,100%,100%);fill-opacity:1;stroke-width:1;stroke-linecap:butt;stroke-linejoin:miter;stroke:rgb(7.45098%,68.235294%,40.392157%);stroke-opacity:1;stroke-miterlimit:10;" d="M 359.010857 276.581149 L 363.100051 280.864355 C 355.250679 289.289564 355.438688 300.162319 364.886136 308.069777 C 376.354681 315.930167 386.554165 312.070574 395.766603 299.87991 C 404.415013 290.372132 418.797696 288.06579 430.783266 295.361362 C 438.86765 300.868342 442.392817 307.787368 442.721833 315.506553 L 437.269574 315.506553 C 436.98756 308.022709 429.420201 301.43316 427.023087 299.5975 C 421.006801 295.361362 409.491254 295.361362 400.889846 304.351389 L 389.891324 314.141575 C 382.464971 319.78976 370.291393 319.648555 362.207009 313.576757 C 347.730321 300.962478 349.704415 288.018722 359.010857 276.581149 Z M 359.010857 276.581149 " transform="matrix(0.0831078,0,0,0.0829913,-17.836586,-6.844446)"/>
</g>
</svg>
