<svg id="レイヤー_1" data-name="レイヤー 1" xmlns="http://www.w3.org/2000/svg" viewBox="0 0 421 696"><defs><style>.cls-1{fill:#13ae67;}.cls-2{fill:#f39a29;}.cls-3,.cls-4,.cls-5{fill:#fff;}.cls-4{stroke:#fff;}.cls-4,.cls-5{stroke-miterlimit:10;}.cls-5{stroke:#13ae67;}</style></defs><path class="cls-1" d="M644.5,276.5C644.5,392.76,434,696,434,762c0-65-210.5-369.24-210.5-485.5S317.74,66,434,66,644.5,160.24,644.5,276.5Z" transform="translate(-223.5 -66)"/><path class="cls-2" d="M-197,115" transform="translate(-223.5 -66)"/><circle class="cls-3" cx="257.03" cy="151.74" r="45.5"/><path class="cls-3" d="M427.93,233.1l-74.4,83c-4,8.36-3.47,16.32,3.36,23.75,6.95,6.74,14.19,8.4,21.65,6.3l85.75-76.29C445.36,262.68,433.69,250.08,427.93,233.1Z" transform="translate(-223.5 -66)"/><circle class="cls-1" cx="256.56" cy="151.31" r="34.18"/><path class="cls-4" d="M450.14,200.79A276.26,276.26,0,0,0,497,247l6.27-4.6c-21.33-16.35-37-32.21-48.16-48.44Z" transform="translate(-223.5 -66)"/><path class="cls-5" d="M349.69,343l5.19,5.43c-9.91,10.61-9.7,24.34,2.23,34.35,14.49,9.92,27.38,5.09,39-10.38,10.89-12,29-14.89,44.23-5.68,10.22,7,14.67,15.69,15.07,25.45h-6.92c-.41-9.5-9.95-17.77-13-20.11-7.54-5.31-22.09-5.31-33,6l-13.84,12.35c-9.36,7.11-24.72,7-34.91-.75C335.41,373.72,337.9,357.4,349.69,343Z" transform="translate(-223.5 -66)"/></svg>