<?xml version="1.0" encoding="UTF-8"?>
<svg xmlns="http://www.w3.org/2000/svg" xmlns:xlink="http://www.w3.org/1999/xlink" width="30pt" height="49pt" viewBox="0 0 30 49" version="1.1">
<g id="surface1">
<path style=" stroke:none;fill-rule:nonzero;fill:rgb(7.45098%,68.235294%,40.392157%);fill-opacity:1;" d="M 30 14.820312 C 30 23.003906 15 44.351562 15 49 C 15 44.425781 0 23.003906 0 14.820312 C 0 6.632812 6.714844 0 15 0 C 23.285156 0 30 6.632812 30 14.820312 Z M 30 14.820312 "/>
<path style=" stroke:none;fill-rule:nonzero;fill:rgb(100%,100%,100%);fill-opacity:1;" d="M 21.558594 10.683594 C 21.558594 12.453125 20.105469 13.886719 18.316406 13.886719 C 16.523438 13.886719 15.074219 12.453125 15.074219 10.683594 C 15.074219 8.914062 16.523438 7.480469 18.316406 7.480469 C 20.105469 7.480469 21.558594 8.914062 21.558594 10.683594 Z M 21.558594 10.683594 "/>
<path style=" stroke:none;fill-rule:nonzero;fill:rgb(100%,100%,100%);fill-opacity:1;" d="M 14.566406 11.765625 L 9.265625 17.609375 C 8.980469 18.195312 9.019531 18.757812 9.503906 19.28125 C 10 19.753906 10.515625 19.871094 11.046875 19.722656 L 17.160156 14.351562 C 15.808594 13.847656 14.976562 12.960938 14.566406 11.765625 Z M 14.566406 11.765625 "/>
<path style=" stroke:none;fill-rule:nonzero;fill:rgb(7.45098%,68.235294%,40.392157%);fill-opacity:1;" d="M 20.71875 10.652344 C 20.71875 11.980469 19.628906 13.058594 18.28125 13.058594 C 16.9375 13.058594 15.847656 11.980469 15.847656 10.652344 C 15.847656 9.324219 16.9375 8.246094 18.28125 8.246094 C 19.628906 8.246094 20.71875 9.324219 20.71875 10.652344 Z M 20.71875 10.652344 "/>
<path style="fill-rule:nonzero;fill:rgb(100%,100%,100%);fill-opacity:1;stroke-width:1;stroke-linecap:butt;stroke-linejoin:miter;stroke:rgb(100%,100%,100%);stroke-opacity:1;stroke-miterlimit:10;" d="M 450.116406 200.772321 C 463.875651 218.028061 479.608333 233.508291 496.985547 246.991071 L 503.289583 242.385842 C 481.965495 226.073342 466.28763 210.204719 455.104818 193.947704 Z M 450.116406 200.772321 " transform="matrix(0.0712589,0,0,0.0704023,-15.926366,-4.646552)"/>
<path style="fill-rule:nonzero;fill:rgb(100%,100%,100%);fill-opacity:1;stroke-width:1;stroke-linecap:butt;stroke-linejoin:miter;stroke:rgb(7.45098%,68.235294%,40.392157%);stroke-opacity:1;stroke-miterlimit:10;" d="M 349.690365 342.979592 L 354.898047 348.417092 C 344.976042 359.014668 345.195312 372.774872 357.090755 382.762117 C 371.617448 392.693878 384.499609 387.866709 396.120964 372.38648 C 406.97487 360.401786 425.119531 357.516582 440.358854 366.727041 C 450.554948 373.718112 454.995182 382.429209 455.433724 392.194515 L 448.471875 392.194515 C 448.088151 382.651148 438.54987 374.383929 435.480078 372.053571 C 427.970052 366.727041 413.388542 366.727041 402.479818 378.045918 L 388.665755 390.419005 C 379.291927 397.521046 363.942969 397.410077 353.746875 389.642219 C 335.382943 373.718112 337.904557 357.405612 349.690365 342.979592 Z M 349.690365 342.979592 " transform="matrix(0.0712589,0,0,0.0704023,-15.926366,-4.646552)"/>
</g>
</svg>
