<?xml version="1.0" encoding="UTF-8"?>
<svg xmlns="http://www.w3.org/2000/svg" xmlns:xlink="http://www.w3.org/1999/xlink" width="35pt" height="44pt" viewBox="0 0 35 44" version="1.1">
<g id="surface1">
<path style=" stroke:none;fill-rule:nonzero;fill:rgb(70.980392%,70.980392%,71.372549%);fill-opacity:1;" d="M 28.398438 39.101562 C 28.398438 36.398438 23.699219 34.199219 17.800781 34.199219 C 11.898438 34.199219 7.199219 36.398438 7.199219 39.101562 C 7.199219 41.800781 11.898438 44 17.800781 44 C 23.699219 44 28.398438 41.800781 28.398438 39.101562 Z M 28.398438 39.101562 "/>
<path style=" stroke:none;fill-rule:nonzero;fill:rgb(5.098039%,67.45098%,40.392157%);fill-opacity:1;" d="M 35 17.5 C 34.601562 28.601562 22 33.398438 17.898438 41.898438 C 13.101562 33.5 0.101562 27.101562 0 17.5 C 0 7.800781 7.800781 0 17.5 0 C 27.199219 0 35.398438 7.800781 35 17.5 Z M 35 17.5 "/>
<path style=" stroke:none;fill-rule:nonzero;fill:rgb(100%,100%,100%);fill-opacity:1;" d="M 24.699219 6.601562 C 24.699219 8.300781 23.300781 9.800781 21.5 9.800781 C 19.800781 9.800781 18.300781 8.398438 18.300781 6.601562 C 18.300781 4.800781 19.699219 3.398438 21.5 3.398438 C 23.300781 3.398438 24.699219 4.800781 24.699219 6.601562 Z M 24.699219 6.601562 "/>
<path style=" stroke:none;fill-rule:nonzero;fill:rgb(100%,100%,100%);fill-opacity:1;" d="M 17.898438 7.601562 L 12.699219 13.398438 C 12.5 14 12.5 14.5 12.898438 15.101562 C 13.398438 15.601562 13.898438 15.699219 14.398438 15.601562 L 20.5 10.300781 C 19.101562 9.699219 18.300781 8.898438 17.898438 7.601562 Z M 17.898438 7.601562 "/>
<path style=" stroke:none;fill-rule:nonzero;fill:rgb(5.098039%,67.45098%,40.392157%);fill-opacity:1;" d="M 24 6.601562 C 24 7.898438 22.898438 9 21.601562 9 C 20.300781 9 19.199219 7.898438 19.199219 6.601562 C 19.199219 5.300781 20.300781 4.199219 21.601562 4.199219 C 22.898438 4.101562 24 5.199219 24 6.601562 Z M 24 6.601562 "/>
<path style="fill-rule:nonzero;fill:rgb(100%,100%,100%);fill-opacity:1;stroke-width:0.25;stroke-linecap:butt;stroke-linejoin:miter;stroke:rgb(100%,100%,100%);stroke-opacity:1;stroke-miterlimit:10;" d="M 19.5 5.5 C 20.5 6.699219 21.601562 7.800781 22.800781 8.800781 L 23.300781 8.398438 C 21.800781 7.300781 20.699219 6.101562 19.898438 5 Z M 19.5 5.5 "/>
<path style=" stroke:none;fill-rule:nonzero;fill:rgb(100%,100%,100%);fill-opacity:1;" d="M 12.5 15.398438 L 12.898438 15.800781 C 12.199219 16.5 12.199219 17.5 13 18.199219 C 14 18.898438 14.898438 18.601562 15.800781 17.5 C 16.5 16.699219 17.898438 16.398438 19 17.101562 C 19.699219 17.601562 20 18.199219 20.101562 18.898438 L 19.601562 18.898438 C 19.601562 18.300781 18.898438 17.699219 18.601562 17.398438 C 18.101562 17 17 17 16.300781 17.800781 L 15.199219 18.601562 C 14.601562 19.101562 13.5 19.101562 12.800781 18.601562 C 11.5 17.5 11.601562 16.398438 12.5 15.398438 Z M 12.5 15.398438 "/>
</g>
</svg>
